<svg aria-hidden="true" style="position:absolute;width:0;height:0;overflow:hidden" xmlns="http://www.w3.org/2000/svg">
  <defs>
    <symbol id="Vector-5" viewBox="0 0 18 18">
      <path d="M9 9c2.486 0 4.5-2.014 4.5-4.5S11.486 0 9 0 4.5 2.014 4.5 4.5 6.514 9 9 9zm0 2.25c-3.004 0-9 1.508-9 4.5v1.125C0 17.494.506 18 1.125 18h15.75c.619 0 1.125-.506 1.125-1.125V15.75c0-2.992-5.996-4.5-9-4.5z"/>
    </symbol>
    <symbol id="Vector-4" viewBox="0 0 18 18">
      <path d="M16 2.438v13.125H2V2.438h14zm0-1.875H2c-1.1 0-2 .844-2 1.875v13.125c0 1.031.9 1.875 2 1.875h14c1.1 0 2-.844 2-1.875V2.438c0-1.031-.9-1.875-2-1.875z"/>
    </symbol>
    <symbol id="Vector-2" viewBox="0 0 18 18">
      <path d="m15.423 11.729-2.363-.27a1.852 1.852 0 0 0-1.526.53l-1.712 1.712A14 14 0 0 1 3.69 7.569l1.721-1.721c.4-.4.595-.958.53-1.526l-.27-2.345A1.863 1.863 0 0 0 3.819.33h-1.61C1.158.33.283 1.205.348 2.256c.493 7.946 6.848 14.292 14.785 14.785 1.051.065 1.926-.809 1.926-1.861v-1.61a1.844 1.844 0 0 0-1.638-1.842z"/>
    </symbol>
    <symbol id="Vector-1" viewBox="0 0 18 18">
      <path d="M15.75 2.25H2.25c-.928 0-1.679.759-1.679 1.688L.563 14.063c0 .928.759 1.688 1.688 1.688h13.5c.928 0 1.688-.759 1.688-1.688V3.938c0-.928-.759-1.688-1.688-1.688zm-.338 3.586L9.447 9.565a.852.852 0 0 1-.894 0L2.588 5.836a.716.716 0 1 1 .76-1.214l5.653 3.535 5.653-3.535a.716.716 0 1 1 .759 1.214z"/>
    </symbol>
    <symbol id="Vector" viewBox="0 0 18 18">
      <path fill="#fff" style="fill:var(--color1, #fff);stroke:var(--color1, #fff)" stroke="#fff" stroke-width=".277" d="m2.71 8.656-.095-.091L1.184 9.92l5.041 4.809L16.816 4.625l-1.421-1.356-9.17 8.739L2.71 8.655z"/>
    </symbol>
    <symbol id="icon-send" viewBox="0 0 18 18">
      <path fill="#fff" style="fill:var(--color1, #fff)" d="M18 0 0 10.125l5.752 2.131 8.873-8.318-6.749 9.105.005.002-.007-.002v4.958l3.226-3.764 4.087 1.514L17.999.001z"/>
    </symbol>
  </defs>
</svg>
